<svg width="1197" height="686" viewBox="0 0 1197 686" fill="none" xmlns="http://www.w3.org/2000/svg">
<path fill-rule="evenodd" clip-rule="evenodd" d="M121.045 60.5225C121.045 93.9481 93.9481 121.045 60.5225 121.045C27.0968 121.045 0 93.9481 0 60.5225C0 27.0968 27.0968 0 60.5225 0C93.9481 0 121.045 27.0968 121.045 60.5225ZM121.045 188.292V685.921H0V188.292H121.045ZM1143.45 242.089L1049.61 515.397L955.212 242.089H901.113L1019.8 564.875H1078.31L1197 242.089H1143.45ZM887.661 391.506C887.661 401.391 887.082 411.846 885.924 422.872H632.198C634.129 453.668 644.749 477.81 664.058 495.299C683.754 512.408 707.505 520.963 735.31 520.963C758.095 520.963 777.018 515.83 792.08 505.565C807.527 494.919 818.341 480.852 824.52 463.363H881.289C872.793 493.399 855.801 517.921 830.312 536.931C804.824 555.561 773.157 564.875 735.31 564.875C705.187 564.875 678.154 558.222 654.211 544.915C630.653 531.608 612.116 512.789 598.599 488.456C585.083 463.743 578.324 435.229 578.324 402.912C578.324 370.595 584.89 342.271 598.02 317.938C611.15 293.606 629.494 274.976 653.052 262.049C676.996 248.742 704.415 242.089 735.31 242.089C765.433 242.089 792.08 248.552 815.251 261.479C838.422 274.406 856.187 292.275 868.545 315.087C881.289 337.518 887.661 362.991 887.661 391.506ZM833.209 380.67C833.209 360.9 828.768 343.981 819.885 329.914C811.003 315.467 798.838 304.631 783.391 297.407C768.329 289.804 751.53 286.002 732.993 286.002C706.346 286.002 683.561 294.366 664.638 311.095C646.101 327.823 635.48 351.015 632.777 380.67H833.209ZM221.482 319.574C208.322 343.423 201.743 371.247 201.743 403.045C201.743 434.465 208.322 462.478 221.482 487.084C234.641 511.69 252.638 530.807 275.473 544.435C298.695 558.063 324.433 564.877 352.686 564.877C380.166 564.877 404.162 559.009 424.674 547.274C445.187 535.16 460.669 519.829 471.119 501.28V559.766H524.529V91.8337H471.119V304.243C459.895 286.073 443.639 271.498 422.352 260.52C401.065 249.164 378.037 243.485 353.267 243.485C324.626 243.485 298.695 250.11 275.473 263.359C252.638 276.609 234.641 295.347 221.482 319.574ZM456.605 342.288C466.281 359.701 471.119 380.143 471.119 403.613C471.119 427.083 466.281 447.714 456.605 465.506C446.929 482.92 433.77 496.359 417.127 505.822C400.872 514.908 382.875 519.45 363.136 519.45C343.397 519.45 325.4 514.908 309.145 505.822C292.889 496.359 279.924 482.92 270.248 465.506C260.572 447.714 255.734 426.894 255.734 403.045C255.734 379.575 260.572 359.133 270.248 341.72C279.924 324.306 292.889 311.057 309.145 301.972C325.4 292.886 343.397 288.344 363.136 288.344C382.875 288.344 400.872 293.076 417.127 302.54C433.77 311.625 446.929 324.874 456.605 342.288Z" fill="#151514"/>
</svg>
